# xmcd CD database file
#
# Track frame offsets:
#	150
#	1548
#	20514
#	33968
#	65424
#	78789
#	94756
#	103080
#	121081
#	136898
#	149308
#	157911
#	162129
#	171073
#	182831
#	196351
#	205030
#	219460
#	225695
#	237297
#	246676
#
# Disc length: 3638 seconds
#
# Revision: 0
# Processed by: cddbd v1.5PL3 Copyright (c) Steve Scherf et al.
# Submitted via: CDex 1.51
#
DISCID=0d0e3415
DTITLE=Various Artist - Pop Your Funk - Mixed By Brennan Green 
DYEAR=1900
DGENRE=Post Punk
TTITLE0=Unknown - Unknown
TTITLE1=Unknown - Unknown
TTITLE2=Unknown - Unknown
TTITLE3=Unknown - Unknown
TTITLE4=Unknown - Unknown
TTITLE5=Unknown - Unknown
TTITLE6=Unknown - Unknown
TTITLE7=Unknown - Unknown
TTITLE8=Unknown - Unknown
TTITLE9=Unknown - Unknown
TTITLE10=Unknown - Unknown
TTITLE11=Unknown - Unknown
TTITLE12=Unknown - Unknown
TTITLE13=Unknown - Unknown
TTITLE14=Unknown - Unknown
TTITLE15=Unknown - Unknown
TTITLE16=Unknown - Unknown
TTITLE17=Unknown - Unknown
TTITLE18=Unknown - Unknown
TTITLE19=Unknown - Unknown
TTITLE20=Unknown - Unknown
EXTD=
EXTT0=
EXTT1=
EXTT2=
EXTT3=
EXTT4=
EXTT5=
EXTT6=
EXTT7=
EXTT8=
EXTT9=
EXTT10=
EXTT11=
EXTT12=
EXTT13=
EXTT14=
EXTT15=
EXTT16=
EXTT17=
EXTT18=
EXTT19=
EXTT20=
PLAYORDER=
